<svg width="24" height="24" viewBox="0 0 24 24" fill="none" xmlns="http://www.w3.org/2000/svg">
<g clip-path="url(#clip0_7212_12812)">
<path d="M23.0284 12.2247C23.0284 11.2414 22.95 10.5239 22.7803 9.77979H11.75V14.2178H18.2246C18.0941 15.3207 17.3892 16.9816 15.8227 18.0977L15.8008 18.2463L19.2883 20.9965L19.53 21.021C21.749 18.9349 23.0284 15.8654 23.0284 12.2247Z" fill="#4285F4"/>
<path d="M11.7491 23.9173C14.9211 23.9173 17.584 22.8543 19.5291 21.0207L15.8218 18.0973C14.8297 18.8016 13.4982 19.2932 11.7491 19.2932C8.64233 19.2932 6.00551 17.2071 5.06556 14.3237L4.92778 14.3356L1.30133 17.1925L1.25391 17.3267C3.18583 21.2332 7.15415 23.9173 11.7491 23.9173Z" fill="#34A853"/>
<path d="M5.06477 14.3238C4.81675 13.5797 4.67322 12.7824 4.67322 11.9586C4.67322 11.1347 4.81675 10.3375 5.05172 9.59342L5.04515 9.43494L1.37326 6.53223L1.25312 6.59039C0.456883 8.21149 0 10.0319 0 11.9586C0 13.8853 0.456883 15.7056 1.25312 17.3267L5.06477 14.3238Z" fill="#FBBC05"/>
<path d="M11.7491 4.62403C13.9551 4.62403 15.4432 5.59401 16.2917 6.40461L19.6073 3.10928C17.571 1.1826 14.9211 0 11.7491 0C7.15415 0 3.18583 2.68406 1.25391 6.59056L5.0525 9.59359C6.00551 6.7102 8.64232 4.62403 11.7491 4.62403Z" fill="#EB4335"/>
</g>
<defs>
<clipPath id="clip0_7212_12812">
<rect width="23.04" height="24" fill="white"/>
</clipPath>
</defs>
</svg>
